<svg clip-rule="evenodd" fill-rule="evenodd" stroke-linejoin="round" stroke-miterlimit="2" viewBox="0 0 346 75" xmlns="http://www.w3.org/2000/svg" xmlns:xlink="http://www.w3.org/1999/xlink"><clipPath id="a"><path clip-rule="evenodd" d="m309.953 43.241c-.235.487-.498.957-.789 1.408h-8.998v-1.408zm1.03-8.45c.182.875.278 1.781.278 2.709 0 1.524-.258 2.989-.733 4.352h-10.362v-7.061zm-.928-2.816c.21.456.395.926.552 1.408h-10.441v-1.408zm-1.755-2.817c.363.447.697.917 1 1.409h-9.134v-1.409z"/></clipPath><path d="m0 0h346v75h-346z" fill="none"/><circle cx="298.019" cy="37.5" fill="#0566cc" r="13.242"/><circle cx="315.571" cy="37.5" fill="#c00" r="13.242"/><path d="m309.953 43.241c-.235.487-.498.957-.789 1.408h-8.998v-1.408zm1.03-8.45c.182.875.278 1.781.278 2.709 0 1.524-.258 2.989-.733 4.352h-10.362v-7.061zm-.928-2.816c.21.456.395.926.552 1.408h-10.441v-1.408zm-1.755-2.817c.363.447.697.917 1 1.409h-9.134v-1.409z" fill="#0566cc"/><g clip-path="url(#a)" fill="#0566cc"><path d="m300.166 34.791h12.844v7.061h-12.844z"/><path d="m300.166 29.158h12.844v1.408h-12.844z"/><path d="m300.166 31.975h12.844v1.408h-12.844z"/><path d="m300.166 43.241h12.844v1.408h-12.844z"/></g><g fill-rule="nonzero"><path d="m303.534 38.89-.016.093-.005.093.005.101.025.097.03.102.045.099.05.097.066.094.064.09.087.086.084.074.091.07.101.06.106.049.11.037.111.025.135.018.136.02.136.016.137.007.146.003h.135l.146-.007.142-.011.147-.023.145-.024.15-.038.147-.047.151-.059.156-.065.15-.082.161-.089-.233 1.321-.085.044-.086.04-.08.035-.081.028-.085.03-.08.022-.086.018-.09.021-.097.011-.104.011-.116.01-.121.006-.136.008h-.15l-.161.003h-.181-.132l-.131-.008-.13-.009-.136-.014-.136-.018-.136-.023-.131-.03-.135-.029-.132-.041-.13-.041-.126-.048-.125-.055-.126-.064-.116-.066-.115-.075-.11-.081-.102-.089-.1-.097-.101-.106-.085-.111-.081-.122-.075-.127-.066-.136-.06-.147-.05-.155-.04-.165-.035-.171-.022-.186-.015-.192v-.201l.006-.216.02-.224.011-.078.009-.089.016-.089.021-.096.021-.102.025-.105.03-.107.028-.111.035-.116.041-.112.051-.116.05-.115.061-.116.065-.115.07-.113.07-.112.085-.107.092-.108.095-.105.11-.096.11-.096.125-.09.127-.082.141-.078.15-.067.161-.063.166-.055.181-.045.186-.038.202-.025.21-.015.222-.009h.106l.107.009.105.007.11.01.106.015.111.023.11.025.106.03.11.034.106.042.107.044.1.053.096.059.096.064.09.075.091.078.081.085.075.093.07.104.065.108.06.118.051.126.045.138.036.145.03.156.014.163.01.176v.186l-.01.196-.021.209-.034.219-.045.232-.057.326h-3.867l.233-1.034h2.319l.01-.141v-.13l-.01-.123-.021-.112-.03-.099-.035-.094-.05-.081-.056-.076-.065-.065-.07-.057-.076-.044-.075-.038-.086-.03-.089-.022-.091-.01-.096-.005h-.106l-.096.015-.101.019-.091.029-.086.042-.079.048-.076.056-.069.062-.069.076-.058.078-.059.085-.052.094-.046.096-.034.104-.029.113-.025.116z" fill="#010066"/><path d="m300.286 37.758.03.005h.041l.01-.038.025-.088.02-.106v-.092l-.01-.069-.01-.062-.021-.06-.024-.055-.031-.053-.035-.047-.04-.045-.04-.045-.05-.036-.051-.031-.055-.03-.055-.025-.057-.019-.064-.016-.066-.01-.061-.009-.155-.004-.156.004-.17.003-.17.012-.171.011-.172.015-.171.019-.165.019-.161.026-.151.023-.14.024-.131.03-.111.03-.1.03-.076.03-.056.033.382-1.264.111-.053.119-.048.116-.043.131-.032.125-.026.137-.023.141-.019.147-.014.15-.007.15-.007.156-.004h.507l.177.004.187.004.149.015.162.021.165.041.171.047.165.064.166.08.162.088.146.105.141.119.12.129.107.146.079.161.061.174.031.189.005.201-.03.22-.556 2.792-.211 1.189h-1.343l.015-.113.01-.111.021-.1.016-.094.01-.079.016-.065.015-.046.016-.024-.071.081-.09.082-.101.078-.116.075-.121.07-.135.066-.141.061-.147.055-.149.048-.156.041-.161.029-.156.023-.155.011-.15.004-.151-.011-.147-.023-.186-.044-.166-.06-.155-.07-.131-.078-.12-.086-.101-.097-.091-.1-.075-.112-.061-.111-.056-.116-.04-.119-.028-.122-.027-.119-.015-.123-.005-.118-.006-.115.016-.207.037-.198.044-.191.07-.179.086-.166.095-.156.121-.146.119-.138.137-.123.146-.107.156-.1.166-.087.171-.073.175-.061.177-.044.181-.033h.011l.024-.004.04-.004.056-.007.065-.008.069-.007.085-.011.093-.005.084-.008.092-.013.089-.008.092-.007.08-.007.08-.003.07-.003h.252l.065.003h.064l.056.003h.121l.049.004h.052l.039.003zm-.348.943h-.155l-.085.008-.091.011-.085.012-.085.016-.081.014-.08.015-.066.019-.061.02-.034.008-.046.014-.051.019-.059.025-.066.027-.071.033-.069.04-.07.041-.07.052-.07.058-.06.058-.056.068-.056.07-.034.079-.031.085-.021.088-.005.184.025.141.046.111.064.081.085.058.086.036.09.019.092.004.166-.004.142-.015.139-.025.121-.034.11-.037.101-.044.091-.053.076-.056.069-.056.065-.064.05-.06.04-.064.04-.062.031-.061.021-.06.02-.056.02-.083.015-.086.022-.088.02-.094.016-.088.015-.083.016-.078.011-.069-.006-.031-.025-.022-.035-.018-.045-.011-.065-.008zm.247.094" fill="#010066"/><path d="m313.242 41.383h-.397l-.217-.017-.186-.021-.171-.031-.141-.04-.126-.045-.105-.055-.085-.064-.071-.071-.056-.078-.04-.086-.024-.093-.016-.103-.005-.108.005-.119.011-.123.02-.134.988-5.821h1.498l-.232 1.303h.92l-.211 1.185-.94-.018-.492 2.966-.011.063v.056l.011.049.015.045.02.036.024.037.037.031.034.022.045.022.046.018.051.015.055.008.061.011.054.004.067.004h.18l.107-.008.096-.015.085-.019.061-.018.051-.02.029-.016.01-.002-.15 1.015-.04.021-.04.02-.04.018-.041.02-.04.015-.05.016-.04.014-.057.015-.049.016-.056.01-.064.012-.066.011-.07.013-.075.01-.085.013zm-4.194-.002h-.232l-.211-.005-.187-.003-.175-.006-.161-.007-.141-.008-.135-.009-.116-.017-.115-.015-.101-.02-.101-.018-.096-.026-.086-.026-.091-.025-.089-.033-.098-.034.232-1.168.057.012.06.019.08.018.086.023.101.018.11.027.121.02.125.023.136.02.141.019.143.014.156.016.148.007.156.005h.156l.16-.009.151-.025.12-.041.096-.059.069-.066.057-.079.045-.081.03-.082.024-.082.012-.086-.007-.074-.02-.07-.025-.061-.045-.06-.05-.052-.061-.048-.076-.045-.074-.04-.086-.042-.096-.04-.096-.038-.096-.036-.106-.042-.101-.041-.11-.045-.106-.043-.1-.049-.107-.056-.101-.061-.095-.063-.091-.071-.085-.082-.081-.085-.07-.098-.061-.103-.056-.116-.045-.123-.03-.137-.015-.15-.005-.164.01-.175.01-.108.021-.104.01-.1.024-.096.021-.094.03-.092.031-.085.034-.086.04-.078.041-.077.051-.071.05-.07.055-.067.06-.063.066-.06.07-.056.071-.052.079-.048.085-.045.092-.045.09-.038.101-.037.107-.029.109-.03.121-.027.121-.021.13-.019.131-.015.142-.011.149-.007.151-.007h.357l.181.002.156.005.15.007.132.008.12.008.106.01.096.008.086.011.07.012.07.007.06.01.055.007.046.007.046.008.04.005-.26 1.203-.075-.002-.074-.008-.066-.012-.064-.005-.07-.013-.065-.011-.07-.011-.076-.012-.074-.008-.086-.007-.09-.007-.101-.004h-.111l-.125.004-.137.007-.149.011-.107.016-.1.021-.097.03-.08.034-.076.039-.063.046-.057.051-.045.052-.036.06-.019.063-.011.063v.067l.015.071.025.071.04.07.051.071.109.097.128.078.149.066.16.056.167.056.171.057.181.063.171.074.16.09.151.107.136.138.109.164.086.2.056.238.02.281-.02.335-.04.249-.064.223-.086.202-.111.178-.125.157-.137.133-.156.115-.162.105-.171.082-.182.066-.18.055-.182.041-.179.03-.183.019-.17.012zm-18.811 0h-1.453l1.221-7.007h2.53l.251 4.17 1.721-4.17h2.629l-1.227 7.007h-1.458l.921-5.247h-.058l-2.167 5.247h-1.629l-.01-.221-.036-.584-.049-.827-.056-.947-.055-.958-.052-.843-.029-.61-.016-.257h-.061zm28.328-5.784.041.007.045.003.034.008.04.008.025.003.02.006h.006l-.006.014-.024.043-.04.064-.045.078-.051.092-.05.101-.046.101-.04.104-.055.141-.05.149-.041.149-.04.138-.03.122-.015.096-.017.064-.004.022h-.011l-.01-.003-.024-.005-.025-.002h-.029l-.031-.004-.02-.003h-.021l-.207.015-.186.023-.166.036-.149.049-.132.06-.11.066-.101.075-.086.083-.069.093-.061.096-.056.102-.04.108-.035.107-.029.115-.025.116-.026.119-.517 3.025h-1.513l1-5.723 1.514.019-.176.955.075-.107.081-.104.074-.102.076-.093.085-.089.076-.082.085-.078.097-.07.089-.065.106-.058.106-.049.121-.044.125-.033.137-.031.15-.02.166-.01z" fill="#010066"/><path d="m321.094 35.599.17.003.161.012.161.014.155.021.15.031.143.036.14.043.137.047.13.056.12.06.127.063.109.071.111.078.105.082.097.085.094.093.087.098.085.103.071.105.069.111.071.114.056.124.054.123.046.129.04.131.036.138.029.141.02.144.016.146.005.153.005.156-.005.155-.01.191-.021.182-.024.175-.036.171-.033.164-.053.155-.054.152-.05.146-.071.138-.065.134-.081.126-.075.119-.085.116-.096.106-.095.102-.101.098-.107.088-.106.086-.115.077-.115.072-.121.064-.131.062-.125.055-.131.048-.137.045-.141.038-.14.03-.142.025-.149.02-.147.015-.156.006-.15.004-.15-.004-.156-.006-.142-.015-.146-.022-.14-.028-.146-.027-.132-.038-.131-.045-.129-.048-.127-.056-.115-.061-.115-.065-.111-.071-.106-.079-.106-.081-.096-.088-.091-.095-.084-.1-.081-.105-.08-.111-.065-.116-.066-.121-.055-.128-.056-.129-.039-.139-.046-.146-.03-.148-.03-.154-.017-.158-.009-.164-.006-.171.006-.174.009-.18.017-.17.03-.169.03-.159.039-.156.046-.154.046-.146.055-.139.061-.139.065-.13.075-.124.08-.122.08-.111.092-.112.091-.101.099-.1.102-.094.111-.085.11-.082.116-.074.119-.067.126-.067.131-.056.13-.053.142-.043.141-.042.146-.032.146-.031.151-.018.156-.019.16-.007zm.255 1.261h-.119l-.156.01-.141.027-.131.043-.121.056-.11.075-.105.082-.091.092-.085.106-.076.11-.07.118-.056.12-.05.126-.045.127-.036.127-.025.127-.024.127-.022.207-.016.193v.176l.016.163.022.149.034.129.041.12.049.107.066.093.069.078.075.067.092.053.09.04.107.03.106.016.114.007.126-.004.127-.015.114-.026.11-.04.106-.053.102-.066.09-.079.091-.094.075-.103.076-.119.07-.135.059-.145.058-.159.049-.175.035-.191.035-.204.021-.16.01-.153v-.149l-.01-.141-.021-.131-.03-.126-.04-.115-.049-.107-.062-.098-.065-.081-.08-.076-.086-.059-.095-.049-.107-.03z" fill="#010066"/><path d="m311.901 36.483-.075-.003-.074-.008-.066-.011-.065-.005-.069-.014-.065-.01-.07-.012-.076-.011-.074-.008-.086-.007-.091-.007-.1-.005h-.111l-.126.005-.136.007-.15.01-.107.016-.099.021-.097.031-.08.033-.076.04-.064.045-.056.051-.045.053-.036.06-.019.063-.011.063v.067l.015.071.025.07.04.07.051.071.109.097.127.078.15.067.16.056.166.055.171.058.182.063.171.074.16.089.151.107.136.139.109.163.086.2.056.238.02.282-.02.334-.04.25-.065.223-.085.202-.111.178-.125.156-.137.134-.156.115-.163.104-.17.083-.182.065-.18.056-.182.041-.18.03-.183.018-.17.013-.166.004h-.232l-.211-.004-.187-.004-.175-.005-.162-.007-.14-.008-.136-.01-.116-.017-.115-.015-.101-.019-.1-.019-.096-.025-.086-.026-.091-.026-.089-.033-.098-.033.232-1.168.057.011.06.02.08.017.085.023.102.019.11.026.121.021.125.023.135.019.142.02.143.014.155.016.149.007.156.004h.155l.161-.009.151-.024.12-.041.096-.059.069-.067.057-.078.045-.082.03-.081.024-.083.011-.085-.006-.074-.02-.071-.025-.06-.045-.06-.051-.052-.061-.048-.075-.045-.074-.04-.086-.043-.097-.039-.095-.038-.096-.037-.106-.041-.101-.041-.11-.045-.106-.044-.101-.048-.106-.057-.101-.06-.095-.064-.092-.071-.085-.081-.08-.085-.07-.098-.061-.104-.056-.116-.045-.123-.03-.137-.015-.149-.005-.164.01-.175.01-.108.02-.104.011-.1.024-.096.021-.094.03-.092.03-.085.035-.086.04-.078.04-.078.052-.071.05-.07.055-.067.06-.063.066-.059.07-.057.07-.052.08-.048.085-.045.092-.044.089-.038.101-.037.107-.029.11-.031.121-.026.121-.021.13-.019.131-.016.141-.011.15-.007.151-.007h.357l.181.003.155.004.151.007.132.008.12.008.105.011.097.007.086.012.07.011.07.007.06.011.055.007.046.007.046.008.039.004z" fill="#fff"/><path d="m313.124 33.994h1.499l-.232 1.303h.92l-.211 1.186-.94-.019-.492 2.966-.011.064v.056l.011.048.015.046.02.036.024.037.036.03.035.022.045.022.046.019.05.015.056.008.06.011.055.004.067.004h.18l.106-.008.097-.015.085-.019.061-.019.05-.019.029-.016.011-.003-.15 1.015-.04.022-.04.019-.04.019-.041.019-.04.015-.051.016-.04.014-.056.015-.05.016-.055.011-.064.011-.067.012-.069.012-.076.011-.085.012-.091.012h-.397l-.217-.017-.186-.021-.172-.031-.14-.041-.126-.044-.105-.056-.085-.064-.071-.07-.056-.078-.041-.086-.023-.093-.016-.104-.005-.108.005-.118.011-.123.02-.135z" fill="#fff"/><path d="m304.033 38.511-.016.093-.005.093.005.1.025.098.03.102.044.099.051.097.065.094.065.089.087.086.084.074.091.07.101.061.106.048.11.037.11.026.136.018.136.019.135.016.138.007.146.004h.135l.146-.007.142-.012.147-.022.145-.025.15-.038.146-.047.152-.058.155-.066.151-.082.161-.088-.233 1.32-.085.044-.087.041-.079.035-.082.028-.085.029-.079.022-.086.019-.09.02-.097.012-.104.01-.116.011-.121.005-.136.008h-.15l-.161.004h-.181-.132l-.131-.008-.13-.009-.136-.014-.137-.019-.135-.023-.131-.029-.135-.029-.132-.041-.13-.042-.126-.047-.126-.055-.125-.064-.116-.066-.115-.076-.11-.08-.102-.089-.1-.098-.102-.105-.085-.112-.08-.122-.075-.126-.066-.137-.06-.147-.05-.154-.04-.165-.036-.172-.021-.186-.015-.192v-.201l.005-.216.021-.223.01-.078.01-.09.016-.088.021-.097.021-.101.024-.105.03-.107.029-.112.035-.115.041-.113.051-.115.05-.115.061-.116.064-.115.07-.113.071-.113.085-.107.091-.108.096-.104.11-.097.109-.095.126-.09.127-.083.14-.078.151-.066.161-.064.165-.055.182-.045.186-.037.201-.026.211-.015.221-.009h.107l.107.009.105.007.11.011.106.015.111.022.11.026.105.03.111.034.105.041.108.044.1.054.096.059.096.064.09.075.091.078.081.085.075.093.07.103.064.108.06.119.052.125.045.138.035.146.03.155.015.163.01.176v.186l-.01.197-.021.209-.034.219-.045.232-.057.326h-3.867l.233-1.034h2.319l.01-.142v-.13l-.01-.123-.021-.111-.031-.1-.034-.093-.051-.082-.055-.075-.065-.065-.071-.057-.075-.044-.075-.038-.086-.031-.089-.022-.092-.009-.095-.006h-.106l-.096.015-.101.02-.091.029-.086.042-.079.047-.077.056-.069.063-.069.075-.057.079-.059.085-.052.094-.046.095-.034.105-.03.112-.024.116-.212 1.105z" fill="#fff"/><path d="m300.785 37.379.03.004h.041l.01-.037.025-.089.02-.106v-.092l-.01-.068-.01-.063-.021-.059-.024-.055-.031-.053-.035-.048-.04-.044-.04-.045-.05-.037-.051-.03-.056-.031-.054-.024-.057-.02-.064-.016-.066-.01-.061-.008-.155-.005-.156.005-.17.002-.171.013-.17.01-.172.015-.171.02-.165.018-.162.026-.15.023-.141.025-.131.03-.11.03-.1.029-.076.03-.056.034.382-1.265.111-.052.119-.049.116-.042.131-.033.125-.026.137-.023.141-.018.147-.014.149-.007.151-.007.156-.004h.507l.177.004.186.003.15.015.162.021.165.042.17.047.166.064.165.079.162.089.146.104.142.12.119.129.108.146.079.16.06.174.031.19.006.201-.03.219-.556 2.793-.212 1.188h-1.342l.015-.112.009-.112.022-.1.016-.094.01-.078.015-.065.015-.046.016-.025-.071.082-.089.081-.102.079-.115.074-.121.07-.135.067-.141.061-.147.054-.15.048-.155.042-.161.029-.156.022-.155.012-.151.003-.15-.01-.147-.023-.186-.045-.166-.06-.155-.07-.131-.078-.12-.085-.101-.097-.091-.101-.076-.111-.06-.111-.057-.117-.039-.118-.029-.123-.026-.118-.015-.123-.006-.119-.005-.115.016-.207.036-.197.045-.191.069-.179.086-.167.096-.155.12-.146.12-.138.137-.124.146-.107.156-.1.166-.086.171-.074.175-.06.177-.044.181-.034h.011l.024-.003.04-.004.056-.007.064-.008.07-.007.085-.012.092-.005.085-.008.091-.012.09-.008.092-.007.079-.007.081-.003.07-.004h.252l.065.004h.063l.057.003h.12l.05.004h.051l.04.003h.04zm-.349.942h-.155l-.085.008-.091.012-.085.011-.085.016-.08.014-.081.015-.065.02-.061.019-.034.008-.046.014-.051.02-.06.025-.065.026-.071.034-.07.04-.07.04-.07.053-.069.057-.061.059-.055.068-.056.07-.035.078-.031.085-.02.089-.005.184.024.141.046.11.065.082.085.057.086.037.09.019.091.004.167-.004.141-.016.14-.025.121-.033.11-.037.101-.045.091-.052.075-.057.069-.055.066-.064.05-.06.039-.064.041-.063.031-.061.02-.059.021-.057.02-.082.015-.086.021-.088.021-.094.016-.089.015-.082.016-.078.01-.07-.005-.03-.026-.022-.034-.019-.045-.01-.065-.008zm.247.094" fill="#fff"/><path d="m290.735 41.001h-1.452l1.221-7.007h2.53l.251 4.171 1.721-4.171h2.628l-1.226 7.007h-1.458l.92-5.246h-.057l-2.168 5.246h-1.628l-.01-.22-.036-.584-.05-.827-.055-.948-.055-.957-.052-.844-.03-.61-.016-.256h-.004-.015-.016-.02-.016-.005.016z" fill="#fff"/><path d="m315.041 41.001h1.514l.517-3.025.026-.118.025-.116.029-.115.035-.108.039-.108.057-.101.06-.097.07-.093.086-.083.101-.074.11-.067.132-.06.149-.048.166-.037.185-.023.208-.015h.021l.02.004.03.003h.029l.025.003.025.004.01.004h.01l.005-.022.017-.064.015-.096.03-.123.04-.138.04-.148.051-.15.055-.141.039-.103.046-.101.051-.101.05-.093.046-.078.039-.064.025-.042.005-.014h-.005l-.02-.006-.025-.004-.04-.007-.034-.008-.046-.003-.04-.008h-.036l-.165.011-.151.02-.136.031-.126.032-.12.045-.106.048-.106.059-.09.064-.096.071-.085.078-.076.081-.085.09-.076.093-.075.101-.08.105-.075.107.176-.956-1.515-.018z" fill="#fff"/><path d="m321.592 35.219.171.004.161.011.16.014.155.022.151.031.142.036.141.042.136.047.13.057.121.059.126.064.11.071.111.078.105.081.096.086.095.093.087.097.085.104.071.104.069.112.071.114.055.124.055.123.045.129.041.131.035.137.03.142.02.144.016.145.005.153.005.156-.005.156-.01.19-.021.182-.025.176-.035.171-.034.163-.052.156-.055.151-.049.146-.071.138-.066.135-.08.126-.075.118-.085.116-.096.106-.095.102-.101.098-.107.089-.106.086-.116.077-.115.071-.12.065-.131.061-.125.056-.131.048-.137.045-.141.038-.141.029-.141.026-.15.019-.147.015-.155.006-.15.005-.15-.005-.156-.006-.142-.015-.146-.022-.141-.027-.146-.028-.131-.038-.131-.044-.13-.049-.126-.056-.115-.061-.115-.064-.111-.071-.106-.08-.106-.08-.096-.089-.091-.094-.084-.1-.082-.106-.079-.11-.066-.116-.065-.122-.055-.127-.056-.129-.04-.139-.046-.146-.029-.148-.03-.154-.017-.158-.01-.164-.005-.172.005-.173.01-.18.017-.171.03-.168.029-.159.04-.157.046-.153.046-.146.055-.14.061-.138.065-.13.075-.124.08-.122.08-.112.091-.111.091-.102.1-.1.101-.094.112-.085.11-.081.116-.074.119-.068.126-.066.131-.057.13-.052.141-.043.142-.042.146-.033.146-.031.151-.017.155-.02.16-.007.163-.001zm.256 1.261h-.119l-.156.011-.141.027-.132.043-.12.056-.11.075-.105.081-.091.092-.085.107-.076.109-.07.119-.056.119-.051.127-.045.127-.035.126-.025.128-.025.126-.021.207-.016.194v.175l.016.163.021.15.035.129.041.119.049.107.066.093.069.078.075.068.092.053.089.039.107.031.107.015.114.008.126-.004.127-.016.114-.026.11-.039.106-.053.102-.067.09-.079.09-.093.076-.103.076-.12.07-.134.059-.145.057-.16.05-.175.035-.19.035-.205.02-.16.011-.153v-.149l-.011-.14-.02-.131-.03-.127-.04-.115-.05-.106-.061-.098-.065-.082-.081-.075-.085-.059-.095-.05-.107-.029z" fill="#fff"/><path d="m326.988 44.649h.438v.056h-.17v.364h-.096v-.364h-.172z" fill="#c00"/><path d="m327.481 44.649h.137l.154.323.151-.323h.136v.42h-.101v-.323l-.151.323h-.075l-.156-.323v.323h-.095z" fill="#c00"/></g><path d="m304.593 46.058h3.525s-.734 1.023-2.67 2.378z" fill="#0566cc"/><path d="m160.808 41.89h-3.382c-.231 0-.428.156-.464.368l-1.368 8.051c-.027.158.105.302.279.302h1.615c.231 0 .428-.156.464-.369l.369-2.171c.035-.213.233-.369.464-.369h1.07c2.228 0 3.513-1.001 3.849-2.984.151-.868.007-1.55-.431-2.027-.481-.524-1.333-.801-2.465-.801m.39 2.94c-.185 1.127-1.112 1.127-2.008 1.127h-.511l.358-2.104c.021-.128.14-.221.279-.221h.233c.611 0 1.187 0 1.485.323.177.193.232.479.164.875" fill="#253b80" fill-rule="nonzero"/><path d="m170.917 44.794h-1.62c-.138 0-.257.093-.278.221l-.072.42-.113-.152c-.351-.473-1.132-.631-1.913-.631-1.789 0-3.318 1.259-3.615 3.024-.155.88.065 1.722.603 2.309.493.54 1.2.765 2.04.765 1.442 0 2.241-.861 2.241-.861l-.072.418c-.027.16.105.303.278.303h1.458c.232 0 .428-.156.465-.368l.875-5.146c.028-.159-.104-.302-.277-.302m-2.258 2.926c-.156.859-.89 1.435-1.827 1.435-.47 0-.846-.14-1.087-.405-.24-.263-.33-.639-.254-1.056.146-.852.892-1.447 1.815-1.447.459 0 .833.142 1.079.409.247.271.345.648.274 1.064" fill="#253b80" fill-rule="nonzero"/><path d="m179.542 44.794h-1.628c-.155 0-.301.071-.389.191l-2.244 3.07-.952-2.95c-.06-.185-.243-.311-.451-.311h-1.599c-.194 0-.329.176-.267.346l1.792 4.883-1.685 2.209c-.133.174.001.413.23.413h1.625c.154 0 .299-.07.386-.187l5.413-7.253c.13-.174-.003-.411-.231-.411" fill="#253b80" fill-rule="nonzero"/><path d="m184.929 41.89h-3.382c-.231 0-.428.156-.464.368l-1.367 8.051c-.028.158.105.302.277.302h1.736c.161 0 .299-.11.324-.258l.389-2.282c.035-.213.233-.369.464-.369h1.07c2.228 0 3.513-1.001 3.849-2.984.152-.868.006-1.55-.432-2.027-.48-.524-1.332-.801-2.464-.801m.391 2.94c-.185 1.127-1.112 1.127-2.009 1.127h-.51l.359-2.104c.021-.128.139-.221.278-.221h.233c.611 0 1.187 0 1.485.323.177.193.231.479.164.875" fill="#179bd7" fill-rule="nonzero"/><path d="m195.038 44.794h-1.619c-.139 0-.257.093-.278.221l-.071.42-.114-.152c-.351-.473-1.132-.631-1.912-.631-1.79 0-3.318 1.259-3.615 3.024-.155.88.064 1.722.602 2.309.495.54 1.2.765 2.04.765 1.442 0 2.242-.861 2.242-.861l-.073.418c-.027.16.106.303.279.303h1.459c.23 0 .427-.156.463-.368l.876-5.146c.027-.159-.106-.302-.279-.302m-2.258 2.926c-.155.859-.89 1.435-1.827 1.435-.469 0-.846-.14-1.087-.405-.239-.263-.329-.639-.254-1.056.147-.852.892-1.447 1.815-1.447.459 0 .833.142 1.08.409.247.271.345.648.273 1.064" fill="#179bd7" fill-rule="nonzero"/><path d="m196.947 42.11-1.388 8.199c-.027.158.105.302.278.302h1.395c.232 0 .429-.156.465-.369l1.368-8.05c.028-.159-.105-.303-.278-.303h-1.562c-.138.001-.257.094-.278.221" fill="#179bd7" fill-rule="nonzero"/><path d="m174.04 39.346.311-1.761-.694-.014h-3.314l2.303-12.997c.007-.039.031-.076.065-.102s.077-.04.122-.04h5.589c1.855 0 3.135.344 3.804 1.022.313.318.513.65.609 1.016.102.384.103.843.004 1.402l-.007.041v.358l.314.158c.264.125.473.267.634.431.268.272.442.617.515 1.027.076.422.051.923-.073 1.491-.143.653-.374 1.222-.687 1.688-.287.429-.653.784-1.087 1.06-.415.262-.907.461-1.464.588-.54.125-1.156.188-1.831.188h-.435c-.311 0-.613.1-.85.279-.237.182-.395.431-.443.704l-.033.158-.55 3.105-.025.114c-.007.036-.018.054-.035.066-.015.011-.036.018-.057.018z" fill="#253b80" fill-rule="nonzero"/><path d="m183.442 27.954c-.016.095-.035.192-.057.292-.737 3.367-3.258 4.53-6.478 4.53h-1.64c-.394 0-.726.255-.787.6l-.839 4.738-.238 1.343c-.04.227.157.432.414.432h2.908c.344 0 .637-.223.691-.525l.029-.132.547-3.092.035-.169c.054-.304.347-.526.692-.526h.434c2.818 0 5.023-1.018 5.668-3.964.269-1.231.13-2.258-.582-2.981-.216-.218-.484-.399-.797-.546" fill="#179bd7" fill-rule="nonzero"/><path d="m182.672 27.681c-.113-.03-.229-.056-.348-.08-.12-.023-.243-.044-.369-.062-.442-.064-.927-.094-1.446-.094h-4.38c-.108 0-.21.022-.302.061-.202.087-.352.257-.388.465l-.932 5.252-.027.154c.061-.346.393-.601.787-.601h1.64c3.22 0 5.741-1.163 6.478-4.53.022-.1.041-.197.057-.292-.186-.088-.388-.163-.605-.227-.054-.016-.109-.032-.165-.046" fill="#222d65" fill-rule="nonzero"/><path d="m175.439 27.971c.036-.208.186-.378.388-.464.092-.04.194-.061.302-.061h4.38c.519 0 1.004.03 1.446.093.126.018.249.039.369.063.119.023.235.05.348.079.056.015.111.03.165.046.218.064.42.14.606.227.219-1.244-.002-2.091-.758-2.859-.833-.844-2.338-1.206-4.263-1.206h-5.588c-.393 0-.729.254-.79.601l-2.327 13.13c-.046.26.179.494.473.494h3.45l.867-4.891z" fill="#253b80" fill-rule="nonzero"/><path d="m265.223 24.429c0-.867-.704-1.57-1.571-1.57h-46.236c-.866 0-1.57.703-1.57 1.57v27.677c0 .866.704 1.57 1.57 1.57h46.236c.867 0 1.571-.704 1.571-1.57z" fill="#125e9f"/><path d="m232.468 40.201c3.731-1.599 8.968-3.049 15.902-1.597l.073-1.759c-7.317-.799-12.566 1.531-15.975 3.182z" fill="#fbaa29"/><path d="m225.731 41.494h3.517v1.059h-2.185l-.015.979h2.178v1.015h-2.185l.008.978h2.155v1.06h-3.471z" fill="#fff"/><path d="m230.131 41.067h1.28l.005 5.518h-1.28z" fill="#fff"/><path d="m235.815 46.165c-.434.368-1.097.552-1.685.552-1.346 0-1.957-.956-1.957-1.905 0-1.118.839-2.067 1.994-2.067 1.412 0 1.854 1 1.854 2.273h-2.568c0 .287.184.772.89.772.449 0 .699-.132 1.045-.367zm-.942-1.897c0-.383-.184-.729-.611-.729-.404 0-.713.361-.794.729z" fill="#fff"/><path d="m239.905 46.335c-.353.22-.934.382-1.361.382-1.177 0-2.023-.677-2.023-1.898 0-1.25.839-2.074 2.104-2.074.441 0 .971.139 1.258.323l-.412.839c-.191-.081-.397-.147-.603-.147-.64 0-1.067.382-1.067.993 0 .53.412.949.956.949.243 0 .486-.11.692-.213z" fill="#fff"/><path d="m240.378 42.877h.579l-.005-1.258h1.236l-.029 1.258h1.052l-.023.927h-1.051c0 .515-.037 1.059-.037 1.376 0 .323.081.478.368.478.176 0 .323-.089.47-.177l.28.868c-.375.229-.831.368-1.265.368-1.038 0-1.089-.655-1.089-1.508 0-.456.037-.912.037-1.405h-.552z" fill="#fff"/><path d="m243.866 42.877h1.28v.522h.015c.191-.316.441-.625.941-.625.14 0 .287.015.419.044l-.169 1.266c-.125-.037-.265-.074-.456-.074-.426 0-.758.36-.758.434l-.022 2.141h-1.28z" fill="#fff"/><path d="m248.84 42.745c1.369 0 2.075.868 2.075 1.986s-.706 1.986-2.075 1.986c-1.368 0-2.074-.868-2.074-1.986s.706-1.986 2.074-1.986zm0 3.001c.611 0 .795-.53.795-1.015 0-.486-.184-1.015-.795-1.015-.61 0-.794.529-.794 1.015 0 .485.184 1.015.794 1.015z" fill="#fff"/><path d="m251.611 42.877h1.28v.405c.294-.287.743-.537 1.199-.537.787 0 1.214.434 1.214 1.449 0 .758-.007 1.574-.015 2.391h-1.28c.007-.714.015-1.435.015-2.2 0-.301-.081-.537-.464-.537-.206 0-.5.177-.669.338l-.007 2.399h-1.303z" fill="#fff"/><path d="m236.261 35.24 1.618-5.333h1.442l-1.617 5.333z" fill="#fff"/><path d="m235.616 29.909-1.298 2.26c-.33.592-.524.891-.617 1.265h-.019c.023-.474-.043-1.056-.05-1.385l-.143-2.14h-2.429l-.025.143c.624 0 .994.314 1.096.955l.473 4.233h1.495l3.023-5.331z" fill="#fff"/><path d="m246.838 35.24-.04-.794-1.802-.001-.368.795h-1.567l2.84-5.323h1.923l.482 5.323zm-.166-3.146c-.016-.394-.029-.929-.002-1.253h-.022c-.088.265-.465 1.06-.631 1.451l-.537 1.169h1.266z" fill="#fff"/><path d="m240.836 35.391c-1.018 0-1.695-.323-2.177-.611l.687-1.05c.433.243.774.522 1.557.522.252 0 .494-.065.632-.304.2-.347-.047-.533-.61-.852l-.279-.182c-.835-.57-1.197-1.113-.804-2.059.252-.606.916-1.065 2.011-1.065.756 0 1.464.327 1.876.646l-.79.927c-.403-.326-.736-.491-1.118-.491-.305 0-.536.118-.616.276-.15.298.049.501.488.774l.331.211c1.014.639 1.256 1.31 1.002 1.937-.438 1.08-1.294 1.321-2.19 1.321z" fill="#fff"/><path d="m25.74 30.994 4.187 14.947 4.871-.02 7.263-16.929h-4.878l-4.532 11.575-1.923-9.269z" fill="#0357a0"/><path d="m20.953 29.353.06-.361h7.421s1.083-.006 1.582.493c.062.062.265.271.383.528.147.323.206.698.206.698l1.57 7.486c-1.949-4.627-5.777-7.494-11.222-8.844z" fill="#faa61a"/><path d="m43.939 28.992h4.621l-2.926 16.949h-4.583z" fill="#0357a0"/><path d="m61.795 33.106.631-3.693s-1.883-.716-4.226-.716-7.717 1.003-7.717 5.672c0 0-.194 2.075 2.405 3.644 1.107.668 2.061 1.053 2.7 1.418 1.057.603 1.41 1.036 1.323 1.755-.122 1.011-1.618 1.399-2.232 1.437-.614.039-2.825.241-5.451-1.137l-.668 3.812s2.252.889 5.293.889c3.04 0 6.546-.986 7.62-4.118.502-1.466.286-2.643-.169-3.504-.491-.928-1.256-1.49-1.537-1.692-.294-.21-.746-.49-1.153-.706-.993-.528-2.077-.981-2.547-1.338-.786-.596-.801-.883-.774-1.235.018-.232.199-.692.817-1.005.316-.16.778-.234 1.326-.32.679-.107 1.568-.024 2.344.142 1.11.238 2.018.626 2.015.695z" fill="#0357a0"/><path d="m78 45.941h-4.269l-.57-2.534-5.903-.012-.983 2.546h-4.838l6.861-15.598s.51-1.343 2.278-1.351h3.693zm-9.416-6.018 2.428-6.329 1.405 6.334z" fill="#0357a0"/><path d="m110.247 26.799h13.102v21.399h-13.102z" fill="#ff5f01" fill-rule="nonzero"/><path d="m111.597 37.501c-.004-4.172 1.915-8.122 5.197-10.698-2.397-1.884-5.359-2.909-8.408-2.909-7.466 0-13.609 6.143-13.609 13.609 0 7.465 6.143 13.608 13.609 13.608 3.049 0 6.011-1.025 8.408-2.909-3.283-2.577-5.202-6.528-5.197-10.701z" fill="#eb011b" fill-rule="nonzero"/><path d="m137.513 45.934v-.438h.189v-.091h-.45v.091h.178v.438zm.873 0v-.529h-.136l-.159.378-.159-.378h-.136v.529h.099v-.401l.147.344h.102l.147-.344v.401z" fill="#f79e1b" fill-rule="nonzero"/><path d="m138.813 37.501c0 7.465-6.143 13.608-13.608 13.608-3.05 0-6.013-1.026-8.411-2.911 3.281-2.578 5.2-6.527 5.2-10.699 0-4.173-1.919-8.121-5.2-10.7 2.398-1.885 5.361-2.91 8.411-2.91 7.465 0 13.608 6.143 13.608 13.608z" fill="#f79e1b" fill-rule="nonzero"/></svg>